<?xml version="1.0" encoding="UTF-8" standalone="no"?>
<!-- Created with Inkscape (http://www.inkscape.org/) -->

<svg
   xmlns:dc="http://purl.org/dc/elements/1.1/"
   xmlns:cc="http://creativecommons.org/ns#"
   xmlns:rdf="http://www.w3.org/1999/02/22-rdf-syntax-ns#"
   xmlns:svg="http://www.w3.org/2000/svg"
   xmlns="http://www.w3.org/2000/svg"
   xmlns:sodipodi="http://sodipodi.sourceforge.net/DTD/sodipodi-0.dtd"
   xmlns:inkscape="http://www.inkscape.org/namespaces/inkscape"
   width="1100"
   height="1032"
   viewBox="0 0 1100 1032"
   id="svg119099"
   version="1.1"
   inkscape:version="0.91 r13725"
   sodipodi:docname="nu-logo.svg">
  <defs
     id="defs119101" />
  <sodipodi:namedview
     id="base"
     pagecolor="#ffffff"
     bordercolor="#666666"
     borderopacity="1.0"
     inkscape:pageopacity="0.0"
     inkscape:pageshadow="2"
     inkscape:zoom="0.7"
     inkscape:cx="-234.93849"
     inkscape:cy="379.18209"
     inkscape:document-units="px"
     inkscape:current-layer="layer1"
     showgrid="false"
     units="px"
     inkscape:window-width="3440"
     inkscape:window-height="1391"
     inkscape:window-x="0"
     inkscape:window-y="1039"
     inkscape:window-maximized="1" />
  <metadata
     id="metadata119104">
    <rdf:RDF>
      <cc:Work
         rdf:about="">
        <dc:format>image/svg+xml</dc:format>
        <dc:type
           rdf:resource="http://purl.org/dc/dcmitype/StillImage" />
        <dc:title />
      </cc:Work>
    </rdf:RDF>
  </metadata>
  <g
     inkscape:label="Layer 1"
     inkscape:groupmode="layer"
     id="layer1"
     transform="translate(0,-20.362161)">
    <path
       style="fill:#000000"
       d="m -1474.2857,669.36934 0,-515.85001 550.00001,0 549.99999,0 0,515.85001 0,515.85006 -549.99999,0 -550.00001,0 0,-515.85006 z m 1090.02473,0 0,-505.95001 -540.02472,0 -540.02481,0 0,505.95001 0,505.95006 540.02481,0 540.02472,0 0,-505.95006 z m -988.46143,-135.525 c 0,-163.6046 -0.091,-184.49269 -0.9044,-213.975 -0.5745,-20.82854 -1.9605,-57.58032 -2.5991,-68.92501 l -0.1985,-3.525 62.4599,0 c 34.3528,0 62.4598,0.10092 62.4598,0.22427 0,0.62142 6.3876,61.22234 6.5141,61.80074 0.1249,0.57117 0.3453,0.675 1.4327,0.675 l 1.285,0 2.4679,-3.525 c 8.9479,-12.78088 21.5184,-25.51544 35.305,-35.76569 21.4656,-15.95971 46.6594,-26.66341 73.4542,-31.20732 19.7729,-3.35315 41.0723,-3.50022 61.2119,-0.42267 29.3152,4.47972 54.7129,15.63178 75.4381,33.12464 7.20849,6.08433 16.13706,15.61451 22.04655,23.53216 17.03544,22.82431 28.86611,52.61921 34.13375,85.96388 0.43015,2.7225 0.84629,5.32125 0.92488,5.775 l 0.14288,0.825 -16.01333,0 -16.01332,0 0,41.25 0,41.25 -41.56361,0 -41.5636,0 0,39.45 0,39.45 41.5636,0 41.56361,0 0,41.25 0,41.25 17.53228,0 17.53229,0 0,36.75 0,36.75 -71.93768,0 -71.9376,0 -0.1049,-134.625 c -0.077,-98.48556 -0.1979,-135.47061 -0.4512,-137.775 -1.5881,-14.44588 -3.2685,-23.23064 -6.1169,-31.97687 -7.213,-22.14869 -19.7078,-36.79023 -37.5212,-43.96768 -15.4452,-6.22328 -35.8098,-6.71532 -52.5461,-1.26959 -10.6936,3.47951 -20.8415,9.90658 -29.2122,18.50101 -6.0438,6.20539 -10.6321,12.65914 -14.7616,20.76313 -5.8875,11.55435 -8.6867,21.8595 -9.8154,36.13496 -0.2174,2.74911 -0.319,47.08534 -0.319,139.12501 l 0,135.09003 -71.9429,0 -71.9429,0 0,-171.975 z m 619.98109,171.77688 c -14.74335,-1.01121 -23.73147,-2.32194 -34.7759,-5.07132 -36.71312,-9.13932 -65.77148,-29.24115 -86.27176,-59.68056 -5.3544,-7.95039 -10.47695,-17.22864 -14.18483,-25.69221 l -1.39845,-3.19221 0,-31.08279 0,-31.08279 41.41247,0 41.41248,0 0,-39.45 0,-39.45 -41.41248,0 -41.41247,0 0,-41.25 0,-41.25 -9.06843,0 -9.06842,0 0,-75.75 0,-75.75001 71.7917,0 71.7917,0 0.0101,130.27501 c 0,80.9241 0.11769,132.32064 0.30138,135.675 1.19421,21.81648 5.19832,38.94549 12.34263,52.79922 7.59379,14.72541 18.78151,24.95289 33.14569,30.3006 7.38382,2.74896 14.87434,4.05438 24.52355,4.27392 7.41353,0.16869 11.67056,-0.14436 17.64463,-1.2975 26.9968,-5.21094 48.4928,-25.36134 58.32952,-54.67806 1.65872,-4.94325 2.73101,-9.66993 3.7104,-16.35417 l 0.66582,-4.54401 0.15991,-138.15 0.15991,-138.15001 71.85377,-0.0756 71.85376,-0.0756 0.11809,179.62562 c 0.0806,122.9046 0.2251,183.27282 0.45695,191.17563 0.82583,28.1559 1.00529,33.85638 1.4307,45.45 0.24817,6.765 0.72074,18.4395 1.04992,25.94331 0.32928,7.50384 0.59872,14.28789 0.59872,15.07572 l 0,1.43241 -62.34321,-0.0757 -62.34331,-0.0757 -1.39724,-13.2 c -0.7685,-7.26 -2.25874,-21.40125 -3.31159,-31.425 l -1.91424,-18.225 -1.26837,0 -1.26847,0 -2.49271,3.525 c -5.8181,8.22726 -13.79862,17.28096 -21.377,24.25164 -29.39732,27.04026 -66.0668,42.46782 -107.22788,45.11289 -4.33118,0.27834 -18.74071,0.35118 -22.22278,0.11235 z"
       id="path119728"
       inkscape:connector-curvature="0" />
    <path
       style="fill:#08e2c8;fill-opacity:1"
       d="m -1308.0001,1096.9654 c -12.0281,-0.6848 -22.1818,-3.2189 -31.4466,-7.8482 -2.5816,-1.29 -5.9775,-3.2596 -7.5464,-4.3768 -3.3418,-2.3799 -8.4156,-7.0987 -10.9715,-10.2039 -7.958,-9.6687 -13.4054,-22.9619 -15.8119,-38.5863 -1.582,-10.2706 -1.5554,-9.0824 -1.5554,-69.43936 l 0,-56.37032 20.8951,0 20.8953,0 0.165,58.17418 c 0.1791,63.1547 0.072,59.1859 1.8176,67.1935 1.8385,8.432 5.365,15.4787 10.0969,20.1761 5.5359,5.4954 12.7485,8.2331 21.6859,8.2315 17.1645,0 28.0994,-9.3989 32.2133,-27.6797 1.9173,-8.5198 1.8075,-4.7542 1.9908,-68.22205 l 0.1669,-57.87353 20.7438,0 20.7439,0 0,56.52065 c 0,52.25893 -0.04,56.87203 -0.5394,61.18063 -1.2671,10.9481 -3.1466,19.0786 -6.1853,26.7571 -10.4541,26.4161 -31.8618,40.5282 -64.2888,42.3798 -5.8336,0.3331 -7.0065,0.3319 -13.0692,-0.013 z m 717.44928,-1.1891 c -11.11335,-0.4655 -28.75436,-1.9787 -29.67853,-2.5458 -0.48678,-0.2987 -0.4101,-180.37632 0.0766,-180.75565 0.98494,-0.76693 18.16739,-2.54247 33.23548,-3.43434 8.39101,-0.49669 34.55755,-0.5074 40.42764,-0.0165 23.9477,2.0024 40.01161,6.76806 54.35776,16.12637 14.64863,9.55551 24.94855,22.61121 30.54064,38.71187 3.6309,10.45403 5.19248,20.70588 5.19298,34.09261 0,23.09434 -5.39238,42.46404 -16.1956,58.16784 -16.3008,23.6949 -42.03719,35.8859 -83.13207,39.3788 -5.03277,0.4278 -27.03126,0.6015 -34.82537,0.275 z m 39.97342,-32.8971 c 7.91936,-1.2524 13.16111,-2.7947 19.07825,-5.6134 5.84823,-2.786 9.23448,-5.1692 13.79237,-9.7072 8.71657,-8.6785 13.60466,-19.0746 15.93504,-33.8904 0.59872,-3.8061 0.68064,-5.4878 0.69293,-14.23708 0.0151,-10.45236 -0.12031,-12.07726 -1.52884,-18.39408 -5.06915,-22.73389 -20.55519,-36.37449 -45.39563,-39.98607 -7.08878,-1.03066 -24.32615,-0.58074 -29.40406,0.76748 l -0.87893,0.23336 -0.0766,60.34139 c -0.0655,51.8492 -0.0161,60.3643 0.35276,60.5048 2.20836,0.8413 22.0797,0.8276 27.43249,-0.019 z m -636.7081,31.0308 c -0.08,-0.2079 -0.1099,-41.6411 -0.068,-92.0737 l 0.078,-91.69578 24.5292,0 24.5292,0 19.7375,34.5738 c 22.6996,39.76191 23.8767,41.87645 29.6234,53.21359 6.4011,12.62849 11.5837,23.86419 16.7099,36.22739 1.4054,3.3897 2.6837,6.2916 2.8405,6.4487 0.7104,0.7121 0.7763,-0.5898 0.273,-5.3965 -2.3952,-22.8726 -3.0918,-44.57529 -2.9578,-92.14671 l 0.093,-32.92027 19.0783,0 19.0782,0 0,91.99638 0,91.9964 -21.9265,0 -21.9266,0 -20.5527,-36.8286 c -27.3309,-48.9749 -32.0776,-57.80909 -40.3843,-75.16049 -3.508,-7.32786 -10.1746,-22.06893 -10.579,-23.392 -0.1323,-0.43307 -0.4011,-0.65545 -0.716,-0.59216 -0.5785,0.11634 -0.5813,0.77484 -0.064,15.11524 0.7145,19.80669 0.9534,41.97021 0.8649,80.27141 l -0.094,40.5866 -19.011,0.077 c -15.0484,0.061 -19.0413,0 -19.1557,-0.3007 z m 190.17633,-2e-4 c -0.0796,-0.2077 -0.10953,-41.6409 -0.0665,-92.0735 l 0.0776,-91.69578 20.89526,0 20.89517,0 0,91.99638 0,91.9964 -20.82806,0.077 c -16.50232,0.061 -20.85829,0 -20.97285,-0.3006 z m 114.47002,0 c -0.0796,-0.2077 -0.17754,-33.7941 -0.21845,-74.6363 l -0.0746,-74.25853 -24.83197,-0.15033 -24.83207,-0.15032 0,-17.2869 0,-17.2869 71.16487,0 71.16477,0 0,17.2869 0,17.2869 -25.13475,0.15032 -25.13485,0.15033 -0.15135,74.55923 -0.15144,74.5591 -20.82826,0.077 c -16.50241,0.061 -20.85798,0 -20.97204,-0.3006 z m 115.37667,0 c -0.0796,-0.207 -0.10902,-41.6396 -0.0665,-92.0722 l 0.0776,-91.69576 57.08322,0 57.08322,0 0,16.83595 0,16.83593 -36.18796,0.15032 -36.18815,0.15033 0,19.09074 0,19.09075 34.06836,0.15032 34.06816,0.15032 0,16.68562 0,16.68558 -34.06816,0.1504 -34.06836,0.1503 0,21.7965 0,21.7965 38.00496,0.1504 38.00507,0.1503 0,16.9862 0,16.9863 -58.83363,0.076 c -46.90804,0.06 -58.86295,0 -58.97781,-0.3007 z m 39.40815,-229.65755 c -20.75934,-2.64453 -36.40378,-15.32946 -43.33025,-35.13336 -2.69019,-7.69159 -3.62656,-13.70769 -3.62656,-23.29973 0,-7.5125 0.35155,-11.0184 1.67343,-16.68561 1.70667,-7.31745 5.60318,-16.09895 9.59379,-21.62213 8.29962,-11.48665 20.09311,-18.7427 34.82537,-21.42647 4.74359,-0.8641 15.54741,-0.94083 20.21584,-0.14355 12.66234,2.16243 22.34863,7.13426 30.12752,15.46414 6.72746,7.204 11.63429,16.94089 13.78693,27.35894 2.80265,13.56305 1.7756,28.7485 -2.76738,40.9149 -7.41072,19.84614 -23.60038,32.19113 -45.38666,34.60795 -3.24751,0.36029 -12.17114,0.33954 -15.11203,-0.035 z m 14.88229,-20.86165 c 11.87571,-2.71621 19.99115,-14.39768 21.86468,-31.4716 0.17613,-1.60567 0.32022,-4.87951 0.32022,-7.27517 0,-13.77868 -4.11404,-25.26281 -11.51116,-32.13244 -4.95126,-4.5981 -9.88761,-6.51347 -16.80339,-6.51992 -11.77102,-0.0111 -20.56054,7.0375 -25.25848,20.25543 -3.54636,9.97776 -3.86255,24.55639 -0.7683,35.42309 2.13974,7.51484 6.71476,14.50205 11.74512,17.93803 3.19219,2.18046 7.8055,3.85401 12.01042,4.3571 1.73107,0.20708 6.37098,-0.11024 8.40089,-0.57452 z m 191.61764,20.99766 c -5.56287,-0.48352 -13.88547,-2.19631 -18.85547,-3.88057 -3.24206,-1.09866 -6.7064,-2.70845 -6.89855,-3.20562 -0.15749,-0.40763 4.7589,-20.51766 5.09847,-20.85485 0.0957,-0.0949 1.9886,0.57443 4.20674,1.48743 11.46974,4.72102 24.07395,6.42831 32.57539,4.41248 4.87055,-1.15486 8.13378,-3.42864 9.82997,-6.8491 0.91501,-1.84536 0.99501,-2.23798 0.99219,-4.86961 0,-2.46292 -0.11517,-3.10055 -0.80568,-4.56858 -2.10266,-4.47043 -7.1305,-7.69938 -18.35268,-11.78634 -16.19197,-5.8969 -25.27188,-12.63402 -29.6204,-21.97813 -2.01248,-4.32404 -2.39628,-6.29902 -2.39628,-12.3314 0,-5.94357 0.39327,-8.10181 2.30792,-12.66772 2.12372,-5.0647 7.28668,-11.06191 12.37265,-14.37212 10.79818,-7.02789 26.45774,-9.36366 43.31121,-6.46025 6.83144,1.17689 14.91433,3.84247 15.07998,4.9731 0.0725,0.49492 -3.87987,15.35527 -5.13605,19.31102 -0.37554,1.18237 -0.49433,1.17485 -3.88743,-0.24649 -5.30896,-2.224 -11.86241,-3.56784 -18.62393,-3.81905 -9.58291,-0.35602 -15.74561,2.0348 -18.23922,7.07581 -0.72266,1.46088 -0.83702,2.05041 -0.82452,4.25153 0.0171,2.93877 0.72466,4.68132 2.73483,6.73077 2.64738,2.69925 6.08119,4.47291 16.93458,8.74726 12.04035,4.74174 17.14225,7.56748 22.13532,12.25978 6.97785,6.55727 9.85234,13.19384 9.86242,22.77 0.0101,7.07933 -1.62668,12.80277 -5.24448,18.36789 -6.27988,9.6601 -18.2371,15.86475 -33.52324,17.39513 -2.88638,0.28897 -12.18162,0.35554 -15.03374,0.10763 z m -538.7326,-0.57155 c -0.6662,-0.064 -2.7104,-0.26432 -4.5425,-0.44534 -12.7983,-1.26453 -24.2251,-5.56163 -32.6029,-12.26044 -10.3967,-8.31283 -16.7995,-20.18635 -19.0742,-35.3706 -0.596,-3.97854 -0.5113,-14.74055 0.1505,-19.09074 3.2212,-21.18037 15.1707,-36.68945 34.5188,-44.80172 9.6515,-4.04673 19.2156,-5.80696 31.5436,-5.80552 7.9362,0 13.3182,0.48406 19.8081,1.77815 3.9315,0.78392 10.7032,2.83171 11.6593,3.5258 0.5315,0.38581 0.4376,0.85749 -2.0439,10.27602 -1.4306,5.42945 -2.7335,10.00323 -2.8954,10.16398 -0.1907,0.18932 -1.7684,-0.19219 -4.4778,-1.08264 -7.5493,-2.48126 -14.7706,-3.41517 -24.1495,-3.12312 -5.8809,0.18311 -9.39,0.73596 -13.6586,2.15187 -12.4052,4.11483 -20.2879,13.36747 -22.7693,26.72606 -0.7142,3.845 -0.706,13.10584 0.015,17.02705 1.074,5.84156 2.924,10.59383 5.7861,14.86421 1.8232,2.72017 6.0659,6.93764 8.7428,8.69075 4.3189,2.82846 10.0442,4.86158 15.8615,5.63273 3.3718,0.44693 12.7893,0.1808 15.6009,-0.44089 3.6527,-0.80771 3.2899,0.68976 3.199,-13.20097 l -0.08,-12.08977 -8.9334,-0.15033 -8.9334,-0.15031 0,-9.92118 0,-9.92117 21.5008,0 21.5009,0 0,30.33613 0,30.3361 -1.6657,0.57525 c -5.2755,1.82207 -16.9144,4.2824 -24.6804,5.21722 -3.6802,0.443 -16.6636,0.81285 -19.3811,0.5521 z m 200.77557,-0.15405 c -6.31142,-0.33555 -14.15481,-1.15933 -14.61014,-1.53444 -0.30208,-0.24896 -0.37987,-11.86736 -0.37987,-56.77908 0,-31.78105 0.11547,-56.53691 0.2641,-56.62807 1.16791,-0.71667 14.14674,-1.8755 25.54696,-2.28097 12.76139,-0.45391 23.79182,0.14569 30.43091,1.65419 11.57958,2.63103 20.5422,8.98985 24.17935,17.15489 2.45744,5.51669 2.68012,13.11718 0.54924,18.75286 -2.19466,5.80424 -6.86933,10.81063 -13.13692,14.06922 -1.24913,0.64945 -2.72637,1.33657 -3.28267,1.52693 -0.5563,0.19033 -0.95974,0.50012 -0.89657,0.68841 0.0635,0.18826 1.13154,0.7118 2.37422,1.16343 5.03448,1.82967 8.37862,3.83669 11.7557,7.05539 6.51264,6.20708 9.52658,14.55558 8.52311,23.60889 -0.84256,7.60197 -3.98426,13.9219 -9.56467,19.24067 -7.78131,7.41636 -19.02465,11.1105 -37.52645,12.32971 -5.21193,0.34346 -17.56312,0.33221 -24.2263,-0.0219 z m 27.15731,-19.35255 c 5.83785,-0.87363 10.89823,-3.24525 13.40515,-6.28251 3.7102,-4.49507 4.47819,-11.57675 1.83485,-16.91922 -2.00675,-4.05623 -5.9502,-6.78836 -12.17386,-8.43462 -2.82794,-0.74803 -3.34958,-0.78663 -10.99386,-0.81351 l -8.02495,-0.0282 0,16.23466 0,16.23466 1.21134,0.18281 c 2.48757,0.37544 11.80467,0.26547 14.74133,-0.17401 z m 0.40012,-51.9716 c 9.61515,-2.01361 14.61649,-7.83723 13.49321,-15.71142 -0.60677,-4.2539 -3.00396,-7.40313 -7.0775,-9.29804 -3.59422,-1.67193 -6.1234,-2.059 -13.07798,-2.00158 -3.33113,0.0273 -6.87417,0.15266 -7.87351,0.27818 l -1.81701,0.22815 -0.0786,13.22824 c -0.0433,7.27553 -0.0101,13.41434 0.0806,13.6418 0.22036,0.57009 13.27728,0.27836 16.35107,-0.36533 z m -540.8626,70.07862 c -0.08,-0.20862 -0.1102,-26.21944 -0.068,-57.80186 l 0.078,-57.42257 15.1947,-0.078 15.1944,-0.078 0.5822,0.82953 c 1.0599,1.51055 25.5554,44.62267 28.3138,49.83231 4.2849,8.09297 9.7355,19.69425 13.345,28.40364 1.4111,3.40509 1.8702,3.52595 1.6169,0.42559 -0.1065,-1.30401 -0.3943,-4.80612 -0.6394,-7.78248 -0.93,-11.2976 -1.1765,-20.71701 -1.2037,-45.99819 l -0.027,-25.55454 11.9618,0 11.9618,0 0,57.72322 0,57.72321 -13.7636,0 -13.7635,0 -6.6237,-11.87535 c -18.2311,-32.6858 -21.3047,-38.24713 -24.6737,-44.6453 -3.9867,-7.57065 -8.0575,-15.94355 -11.4457,-23.54094 -1.2022,-2.69561 -2.3041,-4.86024 -2.4488,-4.81027 -0.3553,0.12284 -0.3317,4.31463 0.1371,24.44287 0.2265,9.72236 0.3574,26.5019 0.3024,38.78278 l -0.097,21.64621 -11.8943,0.0786 c -9.3536,0.0619 -11.9253,-0.003 -12.0395,-0.30064 z m 119.6165,-0.003 c -0.08,-0.20735 -0.1093,-26.21715 -0.067,-57.79957 l 0.078,-57.42257 35.7338,0 35.7339,0 0,10.52245 0,10.52246 -22.5608,0.15032 -22.5607,0.15033 0,12.02567 0,12.02567 21.198,0.15032 21.1981,0.15032 0,10.37214 0,10.37214 -21.1981,0.15032 -21.198,0.15033 0,13.67919 0,13.6792 23.7721,0.15032 23.772,0.15033 0,10.52246 0,10.52245 -36.8784,0.0764 c -29.3433,0.0607 -36.9079,0 -37.0229,-0.30065 z m 92.3637,0.003 c -0.08,-0.2085 -0.1102,-26.2192 -0.067,-57.80162 l 0.078,-57.42257 13.0216,0 13.0216,0 0,57.72322 0,57.72321 -12.9541,0.0784 c -10.2019,0.0617 -12.985,-0.003 -13.0993,-0.30064 z m 167.46433,0 c -0.0796,-0.2085 -0.11013,-26.2192 -0.0675,-57.80162 l 0.0776,-57.42257 13.02175,0 13.02166,0 0.15134,22.09717 0.15144,22.09716 21.65228,0 21.65217,0 0.15145,-22.09716 0.15154,-22.09717 12.87021,0 12.87021,0 0,57.72322 0,57.72321 -12.87021,0 -12.87021,0 -0.15154,-24.05134 -0.15145,-24.05135 -21.65217,0 -21.65228,0 -0.15144,24.05135 -0.15134,24.05134 -12.95425,0.0784 c -10.20177,0.0617 -12.98508,-0.003 -13.09934,-0.30064 z m 347.71164,0.17533 c -0.29463,-0.29249 -0.25422,-113.68036 0.0403,-113.86123 0.13502,-0.0829 1.87253,-0.36005 3.86103,-0.61587 14.65861,-1.88583 35.79378,-2.37429 45.78417,-1.05816 15.8913,2.09348 25.61396,7.78295 30.51636,17.85758 3.8702,7.95323 4.16321,17.98784 0.76205,26.09886 -2.77525,6.61796 -9.2106,13.0385 -16.181,16.14326 -1.1,0.48995 -1.99989,1.01565 -1.99989,1.16819 0,0.15258 0.73273,0.64542 1.62829,1.09528 4.03243,2.02554 7.43057,5.64993 10.00832,10.67495 2.19859,4.28582 2.99661,6.73621 6.82802,20.96708 1.81499,6.74138 3.86466,14.01583 4.55476,16.16542 0.69031,2.14958 1.32772,4.28039 1.41669,4.73511 l 0.16172,0.82675 -13.19949,0 -13.1998,0 -0.42863,-0.82675 c -1.36742,-2.63822 -3.82748,-10.85431 -6.87488,-22.96179 -1.17758,-4.67826 -2.5448,-9.54561 -3.03853,-10.8164 -2.34106,-6.02676 -6.32371,-9.58382 -11.73373,-10.47989 -1.12237,-0.18592 -4.42882,-0.29562 -7.46553,-0.24773 l -5.45093,0.086 -0.15134,22.54813 -0.15145,22.54813 -12.74093,0.0784 c -7.00738,0.0431 -12.83303,-0.0132 -12.94588,-0.12528 z m 44.75681,-65.16045 c 6.20008,-1.87045 9.67671,-4.83261 11.68164,-9.95308 0.60547,-1.54653 0.70885,-2.36136 0.72437,-5.71219 0.0151,-3.34308 -0.0836,-4.20192 -0.6882,-5.9381 -1.81207,-5.20859 -6.13862,-8.4756 -12.92109,-9.75693 -1.90135,-0.35924 -3.82295,-0.42274 -8.93341,-0.29521 -3.58102,0.0894 -6.98782,0.2794 -7.57072,0.42229 l -1.0599,0.25978 -0.0786,15.62111 c -0.0433,8.59158 -0.0101,15.80332 0.0776,16.02606 0.12736,0.32996 1.62889,0.38101 8.10365,0.27551 7.59319,-0.12372 8.06868,-0.16605 10.66497,-0.94924 z M -969.24825,632.12318 c -0.0786,-0.20729 -0.17704,-18.77619 -0.21815,-41.26419 l -0.0746,-40.88728 -41.48754,-0.15032 -41.4876,-0.15032 0,-39.38407 0,-39.38407 41.4876,-0.15032 41.48754,-0.15032 0.15144,-41.18791 0.15144,-41.18793 39.82198,0 39.82187,0 0.15155,41.18793 0.15144,41.18791 41.3361,0.15032 41.3361,0.15032 0,39.38407 0,39.38407 -41.3361,0.15032 -41.3361,0.15032 -0.15144,41.18793 -0.15155,41.18791 -39.75527,0.0763 c -31.64538,0.0607 -39.78469,0 -39.89865,-0.30065 z"
       id="path119860"
       inkscape:connector-curvature="0" />
    <rect
       style="opacity:1;fill:#08e2c8;fill-opacity:0;fill-rule:evenodd;stroke:#000000;stroke-width:10;stroke-linejoin:miter;stroke-miterlimit:4;stroke-dasharray:none;stroke-dashoffset:0;stroke-opacity:1"
       id="rect120524"
       width="1040"
       height="1040"
       x="-71.428574"
       y="293.79074" />
  </g>
</svg>
