<?xml version="1.0" encoding="UTF-8" standalone="no"?>
<!-- Created with Inkscape (http://www.inkscape.org/) -->

<svg
   xmlns:dc="http://purl.org/dc/elements/1.1/"
   xmlns:cc="http://creativecommons.org/ns#"
   xmlns:rdf="http://www.w3.org/1999/02/22-rdf-syntax-ns#"
   xmlns:svg="http://www.w3.org/2000/svg"
   xmlns="http://www.w3.org/2000/svg"
   xmlns:sodipodi="http://sodipodi.sourceforge.net/DTD/sodipodi-0.dtd"
   xmlns:inkscape="http://www.inkscape.org/namespaces/inkscape"
   width="1050"
   height="1050"
   viewBox="0 0 1050 1050"
   id="svg119099"
   version="1.1"
   inkscape:version="0.92.5 (2060ec1f9f, 2020-04-08)"
   sodipodi:docname="logo-master.svg"
   inkscape:export-filename="/home/tim/src/nulanc/nulanc-assets/logo/rendered/logo-master.png"
   inkscape:export-xdpi="214.28999"
   inkscape:export-ydpi="214.28999">
  <defs
     id="defs119101" />
  <sodipodi:namedview
     id="base"
     pagecolor="#ffffff"
     bordercolor="#666666"
     borderopacity="1.0"
     inkscape:pageopacity="0.0"
     inkscape:pageshadow="2"
     inkscape:zoom="1.4"
     inkscape:cx="812.19156"
     inkscape:cy="603.16576"
     inkscape:document-units="px"
     inkscape:current-layer="layer5"
     showgrid="false"
     units="px"
     inkscape:window-width="3832"
     inkscape:window-height="2113"
     inkscape:window-x="0"
     inkscape:window-y="1098"
     inkscape:window-maximized="0" />
  <metadata
     id="metadata119104">
    <rdf:RDF>
      <cc:Work
         rdf:about="">
        <dc:format>image/svg+xml</dc:format>
        <dc:type
           rdf:resource="http://purl.org/dc/dcmitype/StillImage" />
        <dc:title />
      </cc:Work>
    </rdf:RDF>
  </metadata>
  <g
     inkscape:label="Frame"
     inkscape:groupmode="layer"
     id="layer1"
     transform="translate(0,-2.362161)"
     style="display:inline">
    <rect
       style="opacity:1;fill:#ffffff;fill-opacity:1;fill-rule:evenodd;stroke:#000000;stroke-width:10;stroke-linejoin:miter;stroke-miterlimit:4;stroke-dasharray:none;stroke-dashoffset:0;stroke-opacity:1"
       id="rect120524"
       width="1040"
       height="1040"
       x="5.0000224"
       y="7.3621612" />
  </g>
  <g
     inkscape:groupmode="layer"
     id="layer5"
     inkscape:label="Default"
     style="display:inline">
    <path
       transform="translate(0,-2.362161)"
       style="display:inline;fill:#000000"
       d="m 73.1348,392.41576 c 0,-163.6046 -0.091,-184.49269 -0.9044,-213.975 -0.5745,-20.82854 -1.9605,-57.58032 -2.5991,-68.92501 l -0.1985,-3.525 h 62.4599 c 34.3528,0 62.4598,0.10092 62.4598,0.22427 0,0.62142 6.3876,61.22234 6.5141,61.80074 0.1249,0.57117 0.3453,0.675 1.4327,0.675 h 1.285 l 2.4679,-3.525 c 8.9479,-12.78088 21.5184,-25.51544 35.305,-35.76569 21.4656,-15.95971 46.6594,-26.66341 73.4542,-31.20732 19.7729,-3.35315 41.0723,-3.50022 61.2119,-0.42267 29.3152,4.47972 54.7129,15.63178 75.4381,33.12464 7.20849,6.08433 16.13706,15.61451 22.04655,23.53216 17.03544,22.82431 28.86611,52.61921 34.13375,85.96388 0.43015,2.7225 0.84629,5.32125 0.92488,5.775 l 0.14288,0.825 h -16.01333 -16.01332 v 41.25 41.25 H 435.1192 393.5556 v 39.45 39.45 h 41.5636 41.56361 v 41.25 41.25 h 17.53228 17.53229 v 36.75 36.75 H 439.8097 367.8721 l -0.1049,-134.625 c -0.077,-98.48556 -0.1979,-135.47061 -0.4512,-137.775 -1.5881,-14.44588 -3.2685,-23.23064 -6.1169,-31.97687 -7.213,-22.14869 -19.7078,-36.79023 -37.5212,-43.96768 -15.4452,-6.22328 -35.8098,-6.71532 -52.5461,-1.26959 -10.6936,3.47951 -20.8415,9.90658 -29.2122,18.50101 -6.0438,6.20539 -10.6321,12.65914 -14.7616,20.76313 -5.8875,11.55435 -8.6867,21.8595 -9.8154,36.13496 -0.2174,2.74911 -0.319,47.08534 -0.319,139.12501 V 564.39076 H 145.0807 73.1378 v -171.975 z m 619.98109,171.77688 c -14.74335,-1.01121 -23.73147,-2.32194 -34.7759,-5.07132 -36.71312,-9.13932 -65.77148,-29.24115 -86.27176,-59.68056 -5.3544,-7.95039 -10.47695,-17.22864 -14.18483,-25.69221 l -1.39845,-3.19221 v -31.08279 -31.08279 h 41.41247 41.41248 v -39.45 -39.45 h -41.41248 -41.41247 v -41.25 -41.25 h -9.06843 -9.06842 v -75.75 -75.75001 h 71.7917 71.7917 l 0.0101,130.27501 c 0,80.9241 0.11769,132.32064 0.30138,135.675 1.19421,21.81648 5.19832,38.94549 12.34263,52.79922 7.59379,14.72541 18.78151,24.95289 33.14569,30.3006 7.38382,2.74896 14.87434,4.05438 24.52355,4.27392 7.41353,0.16869 11.67056,-0.14436 17.64463,-1.2975 26.9968,-5.21094 48.4928,-25.36134 58.32952,-54.67806 1.65872,-4.94325 2.73101,-9.66993 3.7104,-16.35417 l 0.66582,-4.54401 0.15991,-138.15 0.15991,-138.15001 71.85377,-0.0756 71.85376,-0.0756 0.11809,179.62562 c 0.0806,122.9046 0.2251,183.27282 0.45695,191.17563 0.82583,28.1559 1.00529,33.85638 1.4307,45.45 0.24817,6.765 0.72074,18.4395 1.04992,25.94331 0.32928,7.50384 0.59872,14.28789 0.59872,15.07572 v 1.43241 l -62.34321,-0.0757 -62.34331,-0.0757 -1.39724,-13.2 c -0.7685,-7.26 -2.25874,-21.40125 -3.31159,-31.425 l -1.91424,-18.225 h -1.26837 -1.26847 l -2.49271,3.525 c -5.8181,8.22726 -13.79862,17.28096 -21.377,24.25164 -29.39732,27.04026 -66.0668,42.46782 -107.22788,45.11289 -4.33118,0.27834 -18.74071,0.35118 -22.22278,0.11235 z"
       id="path119728"
       inkscape:connector-curvature="0"
       sodipodi:nodetypes="csccsscscsssssscccccccccccccccccccccscssssccsccccccssccccccccccccccccccccsssscscccccssscscccssccccsscc" />
    <path
       transform="translate(0,-2.362161)"
       style="display:inline;fill:#08e2c8;fill-opacity:1"
       d="m 476.60895,490.6946 c -0.0786,-0.20729 -0.17704,-18.77619 -0.21815,-41.26419 l -0.0746,-40.88728 -41.4875,-0.15032 -41.4876,-0.15032 v -39.38407 -39.38407 l 41.4876,-0.15032 41.4875,-0.15032 0.15144,-41.18791 0.15144,-41.18793 h 39.82198 39.82187 l 0.15155,41.18793 0.15144,41.18791 41.3361,0.15032 41.3361,0.15032 v 39.38407 39.38407 l -41.3361,0.15032 -41.3361,0.15032 -0.15144,41.18793 -0.15155,41.18791 -39.75527,0.0763 c -31.64538,0.0607 -39.78469,0 -39.89865,-0.30065 z"
       id="path119860"
       inkscape:connector-curvature="0"
       sodipodi:nodetypes="cccccccccccccccccccccccccc" />
    <path
       transform="translate(0,-2.362161)"
       style="display:inline;fill:#08e2c8;fill-opacity:1"
       d="m 137.77613,955.85386 c -12.0281,-0.6848 -22.1818,-3.2189 -31.4466,-7.8482 -2.5816,-1.29 -5.9775,-3.2596 -7.546402,-4.3768 -3.3418,-2.3799 -8.4156,-7.0987 -10.9715,-10.2039 -7.958,-9.6687 -13.4054,-22.9619 -15.8119,-38.5863 -1.582,-10.2706 -1.5554,-9.0824 -1.5554,-69.4393 v -56.3704 h 20.8951 20.895302 l 0.165,58.1742 c 0.1791,63.1547 0.072,59.1859 1.8176,67.1935 1.8385,8.432 5.365,15.4787 10.0969,20.1761 5.5359,5.4954 12.7485,8.2331 21.6859,8.2315 17.1645,0 28.0994,-9.3989 32.2133,-27.6797 1.9173,-8.5198 1.8075,-4.7542 1.9908,-68.222 l 0.1669,-57.8736 h 20.7438 20.7439 v 56.5207 c 0,52.2589 -0.04,56.872 -0.5394,61.1806 -1.2671,10.9481 -3.1466,19.0786 -6.1853,26.7571 -10.4541,26.4161 -31.8618,40.5282 -64.2888,42.3798 -5.8336,0.3331 -7.0065,0.3319 -13.0692,-0.013 z m 717.44928,-1.1891 c -11.11335,-0.4655 -28.75436,-1.9787 -29.67853,-2.5458 -0.48678,-0.2987 -0.4101,-180.3763 0.0766,-180.7556 0.98494,-0.767 18.16739,-2.5425 33.23548,-3.4344 8.39101,-0.4967 34.55755,-0.5074 40.42764,-0.017 23.9477,2.0024 40.01161,6.7681 54.35776,16.1264 14.64863,9.5555 24.94855,22.6112 30.54064,38.7119 3.6309,10.454 5.19248,20.7058 5.19298,34.0926 0,23.0943 -5.39238,42.464 -16.1956,58.1678 -16.3008,23.6949 -42.03719,35.8859 -83.13207,39.3788 -5.03277,0.4278 -27.03126,0.6015 -34.82537,0.275 z m 39.97342,-32.8971 c 7.91936,-1.2524 13.16111,-2.7947 19.07825,-5.6134 5.84823,-2.786 9.23448,-5.1692 13.79237,-9.7072 8.71657,-8.6785 13.60466,-19.0746 15.93504,-33.8904 0.59872,-3.8061 0.68064,-5.4878 0.69293,-14.2371 0.0151,-10.4523 -0.12031,-12.0772 -1.52884,-18.394 -5.06915,-22.7339 -20.55519,-36.3745 -45.39563,-39.9861 -7.08878,-1.0307 -24.32615,-0.5808 -29.40406,0.7675 l -0.87893,0.2333 -0.0766,60.3414 c -0.0655,51.8492 -0.0161,60.3643 0.35276,60.5048 2.20836,0.8413 22.0797,0.8276 27.43249,-0.019 z m -636.7081,31.0308 c -0.08,-0.2079 -0.1099,-41.6411 -0.068,-92.0737 l 0.078,-91.6958 h 24.5292 24.5292 l 19.7375,34.5738 c 22.6996,39.7619 23.8767,41.8765 29.6234,53.2136 6.4011,12.6285 11.5837,23.8642 16.7099,36.2274 1.4054,3.3897 2.6837,6.2916 2.8405,6.4487 0.7104,0.7121 0.7763,-0.5898 0.273,-5.3965 -2.3952,-22.8726 -3.0918,-44.5753 -2.9578,-92.1467 l 0.093,-32.9203 h 19.0783 19.0782 v 91.9964 91.9964 h -21.9265 -21.9266 l -20.5527,-36.8286 c -27.3309,-48.9749 -32.0776,-57.8091 -40.3843,-75.1605 -3.508,-7.3278 -10.1746,-22.0689 -10.579,-23.392 -0.1323,-0.433 -0.4011,-0.6554 -0.716,-0.5921 -0.5785,0.1163 -0.5813,0.7748 -0.064,15.1152 0.7145,19.8067 0.9534,41.9702 0.8649,80.2714 l -0.094,40.5866 -19.011,0.077 c -15.0484,0.061 -19.0413,0 -19.1557,-0.3007 z m 190.17633,-2e-4 c -0.0796,-0.2077 -0.10953,-41.6409 -0.0665,-92.0735 l 0.0776,-91.6958 h 20.89526 20.89517 v 91.9964 91.9964 l -20.82806,0.077 c -16.50232,0.061 -20.85829,0 -20.97285,-0.3006 z m 114.47002,0 c -0.0796,-0.2077 -0.17754,-33.7941 -0.21845,-74.6363 l -0.0746,-74.2585 -24.83197,-0.1503 -24.83207,-0.1504 v -17.2869 -17.2869 h 71.16487 71.16477 v 17.2869 17.2869 l -25.13475,0.1504 -25.13485,0.1503 -0.15135,74.5592 -0.15144,74.5591 -20.82826,0.077 c -16.50241,0.061 -20.85798,0 -20.97204,-0.3006 z m 115.37667,0 c -0.0796,-0.207 -0.10902,-41.6396 -0.0665,-92.0722 l 0.0776,-91.6957 h 57.08322 57.08322 v 16.8359 16.8359 l -36.18796,0.1504 -36.18815,0.1503 v 19.0907 19.0908 l 34.06836,0.1503 34.06816,0.1503 v 16.6856 16.6856 l -34.06816,0.1504 -34.06836,0.1503 v 21.7965 21.7965 l 38.00496,0.1504 38.00507,0.1503 v 16.9862 16.9863 l -58.83363,0.076 c -46.90804,0.06 -58.86295,0 -58.97781,-0.3007 z m 39.40815,-229.6575 c -20.75934,-2.6446 -36.40378,-15.3295 -43.33025,-35.1334 -2.69019,-7.6916 -3.62656,-13.7077 -3.62656,-23.2997 0,-7.5125 0.35155,-11.0184 1.67343,-16.6856 1.70667,-7.3175 5.60318,-16.099 9.59379,-21.6222 8.29962,-11.4866 20.09311,-18.7427 34.82537,-21.4264 4.74359,-0.8641 15.54741,-0.9409 20.21584,-0.1436 12.66234,2.1624 22.34863,7.1343 30.12752,15.4642 6.72746,7.204 11.63429,16.9408 13.78693,27.3589 2.80265,13.563 1.7756,28.7485 -2.76738,40.9149 -7.41072,19.8461 -23.60038,32.1911 -45.38666,34.6079 -3.24751,0.3603 -12.17114,0.3396 -15.11203,-0.035 z m 14.88229,-20.8617 c 11.87571,-2.7162 19.99115,-14.3977 21.86468,-31.4716 0.17613,-1.6057 0.32022,-4.8795 0.32022,-7.2752 0,-13.7786 -4.11404,-25.2628 -11.51116,-32.1324 -4.95126,-4.5981 -9.88761,-6.5135 -16.80339,-6.5199 -11.77102,-0.011 -20.56054,7.0375 -25.25848,20.2554 -3.54636,9.9778 -3.86255,24.5564 -0.7683,35.4231 2.13974,7.5148 6.71476,14.5021 11.74512,17.938 3.19219,2.1805 7.8055,3.854 12.01042,4.3571 1.73107,0.2071 6.37098,-0.1102 8.40089,-0.5745 z m 191.61764,20.9977 c -5.56287,-0.4835 -13.88547,-2.1963 -18.85547,-3.8806 -3.24206,-1.0987 -6.7064,-2.7084 -6.89855,-3.2056 -0.15749,-0.4076 4.7589,-20.5177 5.09847,-20.8549 0.0957,-0.095 1.9886,0.5745 4.20674,1.4875 11.46974,4.721 24.07395,6.4283 32.57539,4.4124 4.87055,-1.1548 8.13378,-3.4286 9.82997,-6.8491 0.91501,-1.8453 0.99501,-2.2379 0.99219,-4.8696 0,-2.4629 -0.11517,-3.1005 -0.80568,-4.5685 -2.10266,-4.4705 -7.1305,-7.6994 -18.35268,-11.7864 -16.19197,-5.8969 -25.27188,-12.634 -29.6204,-21.9781 -2.01248,-4.3241 -2.39628,-6.299 -2.39628,-12.3314 0,-5.9436 0.39327,-8.1018 2.30792,-12.6677 2.12372,-5.0647 7.28668,-11.0619 12.37265,-14.3722 10.79818,-7.0278 26.45774,-9.3636 43.31121,-6.4602 6.83144,1.1769 14.91433,3.8425 15.07998,4.9731 0.0725,0.4949 -3.87987,15.3553 -5.13605,19.311 -0.37554,1.1824 -0.49433,1.1749 -3.88743,-0.2465 -5.30896,-2.224 -11.86241,-3.5678 -18.62393,-3.819 -9.58291,-0.356 -15.74561,2.0348 -18.23922,7.0758 -0.72266,1.4609 -0.83702,2.0504 -0.82452,4.2515 0.0171,2.9388 0.72466,4.6813 2.73483,6.7308 2.64738,2.6992 6.08119,4.4729 16.93458,8.7472 12.04035,4.7418 17.14225,7.5675 22.13532,12.2598 6.97785,6.5573 9.85234,13.1939 9.86242,22.77 0.0101,7.0794 -1.62668,12.8028 -5.24448,18.3679 -6.27988,9.6601 -18.2371,15.8648 -33.52324,17.3951 -2.88638,0.289 -12.18162,0.3556 -15.03374,0.1077 z m -538.7326,-0.5716 c -0.6662,-0.064 -2.7104,-0.2643 -4.5425,-0.4453 -12.7983,-1.2645 -24.2251,-5.5616 -32.6029,-12.2605 -10.3967,-8.3128 -16.7995,-20.1863 -19.0742,-35.3706 -0.596,-3.9785 -0.5113,-14.7405 0.1505,-19.0907 3.2212,-21.1804 15.1707,-36.6894 34.5188,-44.8017 9.6515,-4.0467 19.2156,-5.807 31.5436,-5.8055 7.9362,0 13.3182,0.484 19.8081,1.7781 3.9315,0.7839 10.7032,2.8317 11.6593,3.5258 0.5315,0.3858 0.4376,0.8575 -2.0439,10.276 -1.4306,5.4295 -2.7335,10.0033 -2.8954,10.164 -0.1907,0.1893 -1.7684,-0.1922 -4.4778,-1.0826 -7.5493,-2.4813 -14.7706,-3.4152 -24.1495,-3.1231 -5.8809,0.1831 -9.39,0.7359 -13.6586,2.1518 -12.4052,4.1149 -20.2879,13.3675 -22.7693,26.7261 -0.7142,3.845 -0.706,13.1058 0.015,17.027 1.074,5.8416 2.924,10.5939 5.7861,14.8642 1.8232,2.7202 6.0659,6.9377 8.7428,8.6908 4.3189,2.8285 10.0442,4.8616 15.8615,5.6327 3.3718,0.447 12.7893,0.1808 15.6009,-0.4409 3.6527,-0.8077 3.2899,0.6898 3.199,-13.2009 l -0.08,-12.0898 -8.9334,-0.1503 -8.9334,-0.1503 v -9.9212 -9.9212 h 21.5008 21.5009 v 30.3361 30.3361 l -1.6657,0.5753 c -5.2755,1.8221 -16.9144,4.2824 -24.6804,5.2172 -3.6802,0.443 -16.6636,0.8129 -19.3811,0.5521 z m 200.77557,-0.154 c -6.31142,-0.3356 -14.15481,-1.1594 -14.61014,-1.5345 -0.30208,-0.2489 -0.37987,-11.8673 -0.37987,-56.779 0,-31.7811 0.11547,-56.537 0.2641,-56.6281 1.16791,-0.7167 14.14674,-1.8755 25.54696,-2.281 12.76139,-0.4539 23.79182,0.1457 30.43091,1.6542 11.57958,2.631 20.5422,8.9899 24.17935,17.1549 2.45744,5.5167 2.68012,13.1172 0.54924,18.7529 -2.19466,5.8042 -6.86933,10.8106 -13.13692,14.0692 -1.24913,0.6494 -2.72637,1.3365 -3.28267,1.5269 -0.5563,0.1903 -0.95974,0.5001 -0.89657,0.6884 0.0635,0.1883 1.13154,0.7118 2.37422,1.1634 5.03448,1.8297 8.37862,3.8367 11.7557,7.0554 6.51264,6.2071 9.52658,14.5556 8.52311,23.6089 -0.84256,7.602 -3.98426,13.9219 -9.56467,19.2407 -7.78131,7.4164 -19.02465,11.1105 -37.52645,12.3297 -5.21193,0.3435 -17.56312,0.3322 -24.2263,-0.022 z m 27.15731,-19.3526 c 5.83785,-0.8736 10.89823,-3.2452 13.40515,-6.2825 3.7102,-4.4951 4.47819,-11.5767 1.83485,-16.9192 -2.00675,-4.0562 -5.9502,-6.7884 -12.17386,-8.4346 -2.82794,-0.7481 -3.34958,-0.7867 -10.99386,-0.8135 l -8.02495,-0.028 v 16.2346 16.2347 l 1.21134,0.1828 c 2.48757,0.3754 11.80467,0.2655 14.74133,-0.174 z m 0.40012,-51.9716 c 9.61515,-2.0136 14.61649,-7.8372 13.49321,-15.7114 -0.60677,-4.2539 -3.00396,-7.4031 -7.0775,-9.298 -3.59422,-1.672 -6.1234,-2.059 -13.07798,-2.0016 -3.33113,0.027 -6.87417,0.1526 -7.87351,0.2782 l -1.81701,0.2281 -0.0786,13.2283 c -0.0433,7.2755 -0.0101,13.4143 0.0806,13.6418 0.22036,0.57 13.27728,0.2783 16.35107,-0.3654 z m -540.862602,70.0786 c -0.08,-0.2086 -0.1102,-26.2194 -0.068,-57.8018 l 0.078,-57.4226 15.1947,-0.078 15.194402,-0.078 0.5822,0.8295 c 1.0599,1.5106 25.5554,44.6227 28.3138,49.8324 4.2849,8.0929 9.7355,19.6942 13.345,28.4036 1.4111,3.4051 1.8702,3.5259 1.6169,0.4256 -0.1065,-1.304 -0.3943,-4.8061 -0.6394,-7.7825 -0.93,-11.2976 -1.1765,-20.717 -1.2037,-45.9982 l -0.027,-25.5545 h 11.9618 11.9618 v 57.7232 57.7232 h -13.7636 -13.7635 l -6.6237,-11.8753 c -18.2311,-32.6858 -21.3047,-38.2472 -24.6737,-44.6453 -3.9867,-7.5707 -8.0575,-15.9436 -11.445702,-23.541 -1.2022,-2.6956 -2.3041,-4.8602 -2.4488,-4.8103 -0.3553,0.1229 -0.3317,4.3147 0.1371,24.4429 0.2265,9.7224 0.3574,26.5019 0.3024,38.7828 l -0.097,21.6462 -11.8943,0.079 c -9.3536,0.062 -11.9253,0 -12.0395,-0.3006 z m 119.616502,0 c -0.08,-0.2073 -0.1093,-26.2171 -0.067,-57.7995 l 0.078,-57.4226 h 35.7338 35.7339 v 10.5225 10.5224 l -22.5608,0.1503 -22.5607,0.1504 v 12.0256 12.0257 l 21.198,0.1503 21.1981,0.1503 v 10.3722 10.3721 l -21.1981,0.1503 -21.198,0.1504 v 13.6792 13.6792 l 23.7721,0.1503 23.772,0.1503 v 10.5225 10.5224 l -36.8784,0.076 c -29.3433,0.061 -36.9079,0 -37.0229,-0.3006 z m 92.3637,0 c -0.08,-0.2085 -0.1102,-26.2192 -0.067,-57.8016 l 0.078,-57.4225 h 13.0216 13.0216 v 57.7232 57.7232 l -12.9541,0.078 c -10.2019,0.062 -12.985,0 -13.0993,-0.3007 z m 167.46433,0 c -0.0796,-0.2085 -0.11013,-26.2192 -0.0675,-57.8016 l 0.0776,-57.4225 h 13.02175 13.02166 l 0.15134,22.0971 0.15144,22.0972 h 21.65228 21.65217 l 0.15145,-22.0972 0.15154,-22.0971 h 12.87021 12.87021 v 57.7232 57.7232 H 535.4381 522.56789 l -0.15154,-24.0514 -0.15145,-24.0513 h -21.65217 -21.65228 l -0.15144,24.0513 -0.15134,24.0514 -12.95425,0.078 c -10.20177,0.062 -12.98508,0 -13.09934,-0.3007 z m 347.71164,0.1754 c -0.29463,-0.2925 -0.25422,-113.6804 0.0403,-113.8613 0.13502,-0.083 1.87253,-0.36 3.86103,-0.6158 14.65861,-1.8859 35.79378,-2.3743 45.78417,-1.0582 15.8913,2.0935 25.61396,7.783 30.51636,17.8576 3.8702,7.9532 4.16321,17.9878 0.76205,26.0989 -2.77525,6.6179 -9.2106,13.0385 -16.181,16.1432 -1.1,0.49 -1.99989,1.0157 -1.99989,1.1682 0,0.1526 0.73273,0.6454 1.62829,1.0953 4.03243,2.0255 7.43057,5.6499 10.00832,10.6749 2.19859,4.2859 2.99661,6.7362 6.82802,20.9671 1.81499,6.7414 3.86466,14.0158 4.55476,16.1654 0.69031,2.1496 1.32772,4.2804 1.41669,4.7351 l 0.16172,0.8268 h -13.19949 -13.1998 l -0.42863,-0.8268 c -1.36742,-2.6382 -3.82748,-10.8543 -6.87488,-22.9617 -1.17758,-4.6783 -2.5448,-9.5457 -3.03853,-10.8164 -2.34106,-6.0268 -6.32371,-9.5839 -11.73373,-10.4799 -1.12237,-0.186 -4.42882,-0.2957 -7.46553,-0.2478 l -5.45093,0.086 -0.15134,22.5482 -0.15145,22.5481 -12.74093,0.078 c -7.00738,0.043 -12.83303,-0.013 -12.94588,-0.1253 z m 44.75681,-65.1605 c 6.20008,-1.8704 9.67671,-4.8326 11.68164,-9.9531 0.60547,-1.5465 0.70885,-2.3613 0.72437,-5.7121 0.0151,-3.3431 -0.0836,-4.202 -0.6882,-5.9381 -1.81207,-5.2086 -6.13862,-8.4756 -12.92109,-9.757 -1.90135,-0.3592 -3.82295,-0.4227 -8.93341,-0.2952 -3.58102,0.089 -6.98782,0.2794 -7.57072,0.4223 l -1.0599,0.2598 -0.0786,15.6211 c -0.0433,8.5916 -0.0101,15.8033 0.0776,16.0261 0.12736,0.3299 1.62889,0.381 8.10365,0.2755 7.59319,-0.1238 8.06868,-0.1661 10.66497,-0.9493 z"
       id="path119860-3"
       inkscape:connector-curvature="0"
       sodipodi:nodetypes="cccccscccsccccccccsccscccccccccccccccccccccccccccccccccccccccccccccccccsccccccccccccscccccccccccccccccsccccccccccccccccccccccccccccccsccccsccccccsccccccccccccccccccscccccccccccccccccccscsccccccccccccccccccccccccccccccsccccccccccccccccccccccccccccccccccccccccccccccccccccccccccccccccccccccccccccccccccccccccccccccccccccccccccccccccccccccccccccccccccccscccccccccccccccccccccccccccccccc" />
    <text
       xml:space="preserve"
       style="font-style:normal;font-variant:normal;font-weight:normal;font-stretch:normal;font-size:16px;line-height:1.25;font-family:'Nimbus Sans';-inkscape-font-specification:'Nimbus Sans';font-variant-ligatures:normal;font-variant-caps:normal;font-variant-numeric:normal;font-feature-settings:normal;text-align:center;letter-spacing:0px;word-spacing:0px;writing-mode:lr-tb;text-anchor:middle;fill:#000000;fill-opacity:1;stroke:none"
       x="513.75"
       y="379.46429"
       id="text4807"><tspan
         sodipodi:role="line"
         id="tspan4805"
         x="513.75"
         y="379.46429"
         style="font-style:normal;font-variant:normal;font-weight:normal;font-stretch:normal;font-size:48px;font-family:'Nimbus Sans';-inkscape-font-specification:'Nimbus Sans, Normal';font-variant-ligatures:normal;font-variant-caps:normal;font-variant-numeric:normal;font-feature-settings:normal;text-align:center;writing-mode:lr-tb;text-anchor:middle">northeast</tspan></text>
  </g>
</svg>
