<?xml version="1.0" encoding="UTF-8" standalone="no"?>
<!-- Created with Inkscape (http://www.inkscape.org/) -->

<svg
   xmlns:dc="http://purl.org/dc/elements/1.1/"
   xmlns:cc="http://creativecommons.org/ns#"
   xmlns:rdf="http://www.w3.org/1999/02/22-rdf-syntax-ns#"
   xmlns:svg="http://www.w3.org/2000/svg"
   xmlns="http://www.w3.org/2000/svg"
   xmlns:sodipodi="http://sodipodi.sourceforge.net/DTD/sodipodi-0.dtd"
   xmlns:inkscape="http://www.inkscape.org/namespaces/inkscape"
   width="1050"
   height="1050"
   viewBox="0 0 1050 1050"
   id="svg119099"
   version="1.1"
   inkscape:version="0.92.1 r15371"
   sodipodi:docname="logo-circle-avatar.svg"
   inkscape:export-filename="/home/tim/src/nulanc/nulanc-assets/logo/rendered/logo-circle-avatar.png"
   inkscape:export-xdpi="214.28999"
   inkscape:export-ydpi="214.28999">
  <defs
     id="defs119101" />
  <sodipodi:namedview
     id="base"
     pagecolor="#ffffff"
     bordercolor="#666666"
     borderopacity="1.0"
     inkscape:pageopacity="0.0"
     inkscape:pageshadow="2"
     inkscape:zoom="0.98994949"
     inkscape:cx="449.96968"
     inkscape:cy="507.92967"
     inkscape:document-units="px"
     inkscape:current-layer="layer5"
     showgrid="false"
     units="px"
     inkscape:window-width="1720"
     inkscape:window-height="1376"
     inkscape:window-x="0"
     inkscape:window-y="27"
     inkscape:window-maximized="0" />
  <metadata
     id="metadata119104">
    <rdf:RDF>
      <cc:Work
         rdf:about="">
        <dc:format>image/svg+xml</dc:format>
        <dc:type
           rdf:resource="http://purl.org/dc/dcmitype/StillImage" />
        <dc:title></dc:title>
      </cc:Work>
    </rdf:RDF>
  </metadata>
  <g
     inkscape:label="Frame"
     inkscape:groupmode="layer"
     id="layer1"
     transform="translate(0,-2.362161)"
     style="display:inline" />
  <g
     inkscape:groupmode="layer"
     id="layer5"
     inkscape:label="Default"
     style="display:inline">
    <g
       id="g89"
       transform="translate(0,196.9714)">
      <path
         sodipodi:nodetypes="csccsscscsssssscccccccccccccccccccccscssssccsccccccssccccccccccccccccccccsssscscccccssscscccssccccsscc"
         inkscape:connector-curvature="0"
         id="path119728"
         d="m 73.1348,392.41576 c 0,-163.6046 -0.091,-184.49269 -0.9044,-213.975 -0.5745,-20.82854 -1.9605,-57.58032 -2.5991,-68.92501 l -0.1985,-3.525 h 62.4599 c 34.3528,0 62.4598,0.10092 62.4598,0.22427 0,0.62142 6.3876,61.22234 6.5141,61.80074 0.1249,0.57117 0.3453,0.675 1.4327,0.675 h 1.285 l 2.4679,-3.525 c 8.9479,-12.78088 21.5184,-25.51544 35.305,-35.76569 21.4656,-15.95971 46.6594,-26.66341 73.4542,-31.20732 19.7729,-3.35315 41.0723,-3.50022 61.2119,-0.42267 29.3152,4.47972 54.7129,15.63178 75.4381,33.12464 7.20849,6.08433 16.13706,15.61451 22.04655,23.53216 17.03544,22.82431 28.86611,52.61921 34.13375,85.96388 0.43015,2.7225 0.84629,5.32125 0.92488,5.775 l 0.14288,0.825 h -16.01333 -16.01332 v 41.25 41.25 H 435.1192 393.5556 v 39.45 39.45 h 41.5636 41.56361 v 41.25 41.25 h 17.53228 17.53229 v 36.75 36.75 H 439.8097 367.8721 l -0.1049,-134.625 c -0.077,-98.48556 -0.1979,-135.47061 -0.4512,-137.775 -1.5881,-14.44588 -3.2685,-23.23064 -6.1169,-31.97687 -7.213,-22.14869 -19.7078,-36.79023 -37.5212,-43.96768 -15.4452,-6.22328 -35.8098,-6.71532 -52.5461,-1.26959 -10.6936,3.47951 -20.8415,9.90658 -29.2122,18.50101 -6.0438,6.20539 -10.6321,12.65914 -14.7616,20.76313 -5.8875,11.55435 -8.6867,21.8595 -9.8154,36.13496 -0.2174,2.74911 -0.319,47.08534 -0.319,139.12501 V 564.39076 H 145.0807 73.1378 v -171.975 z m 619.98109,171.77688 c -14.74335,-1.01121 -23.73147,-2.32194 -34.7759,-5.07132 -36.71312,-9.13932 -65.77148,-29.24115 -86.27176,-59.68056 -5.3544,-7.95039 -10.47695,-17.22864 -14.18483,-25.69221 l -1.39845,-3.19221 v -31.08279 -31.08279 h 41.41247 41.41248 v -39.45 -39.45 h -41.41248 -41.41247 v -41.25 -41.25 h -9.06843 -9.06842 v -75.75 -75.75001 h 71.7917 71.7917 l 0.0101,130.27501 c 0,80.9241 0.11769,132.32064 0.30138,135.675 1.19421,21.81648 5.19832,38.94549 12.34263,52.79922 7.59379,14.72541 18.78151,24.95289 33.14569,30.3006 7.38382,2.74896 14.87434,4.05438 24.52355,4.27392 7.41353,0.16869 11.67056,-0.14436 17.64463,-1.2975 26.9968,-5.21094 48.4928,-25.36134 58.32952,-54.67806 1.65872,-4.94325 2.73101,-9.66993 3.7104,-16.35417 l 0.66582,-4.54401 0.15991,-138.15 0.15991,-138.15001 71.85377,-0.0756 71.85376,-0.0756 0.11809,179.62562 c 0.0806,122.9046 0.2251,183.27282 0.45695,191.17563 0.82583,28.1559 1.00529,33.85638 1.4307,45.45 0.24817,6.765 0.72074,18.4395 1.04992,25.94331 0.32928,7.50384 0.59872,14.28789 0.59872,15.07572 v 1.43241 l -62.34321,-0.0757 -62.34331,-0.0757 -1.39724,-13.2 c -0.7685,-7.26 -2.25874,-21.40125 -3.31159,-31.425 l -1.91424,-18.225 h -1.26837 -1.26847 l -2.49271,3.525 c -5.8181,8.22726 -13.79862,17.28096 -21.377,24.25164 -29.39732,27.04026 -66.0668,42.46782 -107.22788,45.11289 -4.33118,0.27834 -18.74071,0.35118 -22.22278,0.11235 z"
         style="display:inline;fill:#000000"
         transform="translate(0,-2.362161)" />
      <path
         sodipodi:nodetypes="cccccccccccccccccccccccccc"
         inkscape:connector-curvature="0"
         id="path119860"
         d="m 476.60895,490.6946 c -0.0786,-0.20729 -0.17704,-18.77619 -0.21815,-41.26419 l -0.0746,-40.88728 -41.4875,-0.15032 -41.4876,-0.15032 v -39.38407 -39.38407 l 41.4876,-0.15032 41.4875,-0.15032 0.15144,-41.18791 0.15144,-41.18793 h 39.82198 39.82187 l 0.15155,41.18793 0.15144,41.18791 41.3361,0.15032 41.3361,0.15032 v 39.38407 39.38407 l -41.3361,0.15032 -41.3361,0.15032 -0.15144,41.18793 -0.15155,41.18791 -39.75527,0.0763 c -31.64538,0.0607 -39.78469,0 -39.89865,-0.30065 z"
         style="display:inline;fill:#08e2c8;fill-opacity:1"
         transform="translate(0,-2.362161)" />
    </g>
  </g>
</svg>
